<?xml version="1.0" encoding="UTF-8" standalone="no"?>
<!DOCTYPE svg PUBLIC "-//W3C//DTD SVG 1.1//EN"
 "http://www.w3.org/Graphics/SVG/1.1/DTD/svg11.dtd">
<!-- Generated by graphviz version 12.2.1 (20250203.1708)
 -->
<!-- Pages: 1 -->
<svg width="232pt" height="611pt"
 viewBox="0.00 0.00 232.00 611.25" xmlns="http://www.w3.org/2000/svg" xmlns:xlink="http://www.w3.org/1999/xlink">
<g id="graph0" class="graph" transform="scale(1 1) rotate(0) translate(4 607.25)">
<polygon fill="white" stroke="none" points="-4,4 -4,-607.25 228,-607.25 228,4 -4,4"/>
<!-- fake -->
<g id="node1" class="node">
<title>fake</title>
</g>
<!-- 3 -->
<g id="node5" class="node">
<title>3</title>
<ellipse fill="none" stroke="black" cx="87" cy="-508.25" rx="18" ry="18"/>
<ellipse fill="none" stroke="black" cx="87" cy="-508.25" rx="22" ry="22"/>
<text text-anchor="middle" x="87" y="-503.57" font-family="Times,serif" font-size="14.00">3</text>
</g>
<!-- fake&#45;&gt;3 -->
<g id="edge1" class="edge">
<title>fake&#45;&gt;3</title>
<path fill="none" stroke="black" stroke-width="2" d="M87,-566.85C87,-559.42 87,-550.48 87,-541.89"/>
<polygon fill="black" stroke="black" stroke-width="2" points="90.5,-543.59 87,-533.59 83.5,-543.59 90.5,-543.59"/>
</g>
<!-- 0 -->
<g id="node2" class="node">
<title>0</title>
<ellipse fill="none" stroke="black" cx="27" cy="-22" rx="27" ry="18"/>
<text text-anchor="middle" x="27" y="-17.32" font-family="Times,serif" font-size="14.00">0</text>
</g>
<!-- 0&#45;&gt;0 -->
<g id="edge8" class="edge">
<title>0&#45;&gt;0</title>
<path fill="none" stroke="black" d="M53.35,-26.54C63.53,-26.74 72,-25.23 72,-22 72,-20.13 69.17,-18.84 64.81,-18.12"/>
<polygon fill="black" stroke="black" points="65.04,-14.63 54.86,-17.55 64.64,-21.62 65.04,-14.63"/>
<text text-anchor="middle" x="76.5" y="-17.32" font-family="Times,serif" font-size="14.00">3</text>
</g>
<!-- 0&#45;&gt;0 -->
<g id="edge12" class="edge">
<title>0&#45;&gt;0</title>
<path fill="none" stroke="black" d="M51.57,-29.94C70.6,-32.91 90,-30.26 90,-22 90,-15.35 77.44,-12.34 62.62,-12.96"/>
<polygon fill="black" stroke="black" points="62.68,-9.44 53.08,-13.91 63.38,-16.4 62.68,-9.44"/>
<text text-anchor="middle" x="94.5" y="-17.32" font-family="Times,serif" font-size="14.00">6</text>
</g>
<!-- 1 -->
<g id="node3" class="node">
<title>1</title>
<ellipse fill="none" stroke="black" cx="148" cy="-22" rx="18" ry="18"/>
<ellipse fill="none" stroke="black" cx="148" cy="-22" rx="22" ry="22"/>
<text text-anchor="middle" x="148" y="-17.32" font-family="Times,serif" font-size="14.00">1</text>
</g>
<!-- 1&#45;&gt;1 -->
<g id="edge7" class="edge">
<title>1&#45;&gt;1</title>
<path fill="none" stroke="black" d="M169.81,-26.49C179.56,-26.91 188,-25.42 188,-22 188,-20.08 185.33,-18.76 181.26,-18.06"/>
<polygon fill="black" stroke="black" points="181.47,-14.56 171.32,-17.58 181.14,-21.55 181.47,-14.56"/>
<text text-anchor="middle" x="192.5" y="-17.32" font-family="Times,serif" font-size="14.00">3</text>
</g>
<!-- 1&#45;&gt;1 -->
<g id="edge14" class="edge">
<title>1&#45;&gt;1</title>
<path fill="none" stroke="black" d="M169.11,-29.67C187.1,-33.06 206,-30.5 206,-22 206,-15.29 194.23,-12.29 180.43,-12.98"/>
<polygon fill="black" stroke="black" points="180.13,-9.49 170.62,-14.15 180.96,-16.44 180.13,-9.49"/>
<text text-anchor="middle" x="210.5" y="-17.32" font-family="Times,serif" font-size="14.00">6</text>
</g>
<!-- 2 -->
<g id="node4" class="node">
<title>2</title>
<ellipse fill="none" stroke="black" cx="87" cy="-216.5" rx="18" ry="18"/>
<ellipse fill="none" stroke="black" cx="87" cy="-216.5" rx="22" ry="22"/>
<text text-anchor="middle" x="87" y="-211.82" font-family="Times,serif" font-size="14.00">2</text>
</g>
<!-- 2&#45;&gt;2 -->
<g id="edge11" class="edge">
<title>2&#45;&gt;2</title>
<path fill="none" stroke="black" d="M107.58,-225.35C117.84,-226.57 127,-223.62 127,-216.5 127,-212.27 123.77,-209.51 119,-208.23"/>
<polygon fill="black" stroke="black" points="119.26,-204.73 109.09,-207.73 118.9,-211.73 119.26,-204.73"/>
<text text-anchor="middle" x="131.5" y="-211.82" font-family="Times,serif" font-size="14.00">6</text>
</g>
<!-- 4 -->
<g id="node6" class="node">
<title>4</title>
<ellipse fill="none" stroke="black" cx="87" cy="-119.25" rx="18" ry="18"/>
<ellipse fill="none" stroke="black" cx="87" cy="-119.25" rx="22" ry="22"/>
<text text-anchor="middle" x="87" y="-114.58" font-family="Times,serif" font-size="14.00">4</text>
</g>
<!-- 2&#45;&gt;4 -->
<g id="edge13" class="edge">
<title>2&#45;&gt;4</title>
<path fill="none" stroke="black" d="M87,-194.36C87,-182.24 87,-166.76 87,-153.08"/>
<polygon fill="black" stroke="black" points="90.5,-153.17 87,-143.17 83.5,-153.17 90.5,-153.17"/>
<text text-anchor="middle" x="91.5" y="-163.2" font-family="Times,serif" font-size="14.00">3</text>
</g>
<!-- 3&#45;&gt;3 -->
<g id="edge4" class="edge">
<title>3&#45;&gt;3</title>
<path fill="none" stroke="black" d="M107.99,-515.66C118.09,-516.57 127,-514.1 127,-508.25 127,-504.77 123.86,-502.49 119.19,-501.4"/>
<polygon fill="black" stroke="black" points="119.66,-497.92 109.5,-500.92 119.31,-504.91 119.66,-497.92"/>
<text text-anchor="middle" x="131.5" y="-503.57" font-family="Times,serif" font-size="14.00">6</text>
</g>
<!-- 6 -->
<g id="node8" class="node">
<title>6</title>
<ellipse fill="none" stroke="black" cx="87" cy="-411" rx="18" ry="18"/>
<ellipse fill="none" stroke="black" cx="87" cy="-411" rx="22" ry="22"/>
<text text-anchor="middle" x="87" y="-406.32" font-family="Times,serif" font-size="14.00">6</text>
</g>
<!-- 3&#45;&gt;6 -->
<g id="edge10" class="edge">
<title>3&#45;&gt;6</title>
<path fill="none" stroke="black" d="M87,-486.11C87,-473.99 87,-458.51 87,-444.83"/>
<polygon fill="black" stroke="black" points="90.5,-444.92 87,-434.92 83.5,-444.92 90.5,-444.92"/>
<text text-anchor="middle" x="91.5" y="-454.95" font-family="Times,serif" font-size="14.00">3</text>
</g>
<!-- 4&#45;&gt;0 -->
<g id="edge15" class="edge">
<title>4&#45;&gt;0</title>
<path fill="none" stroke="black" d="M75.71,-100.33C66.49,-85.7 53.35,-64.82 43.03,-48.45"/>
<polygon fill="black" stroke="black" points="46.14,-46.81 37.85,-40.22 40.21,-50.54 46.14,-46.81"/>
<text text-anchor="middle" x="66.87" y="-65.95" font-family="Times,serif" font-size="14.00">6</text>
</g>
<!-- 4&#45;&gt;1 -->
<g id="edge6" class="edge">
<title>4&#45;&gt;1</title>
<path fill="none" stroke="black" d="M98.47,-100.33C107.45,-86.32 120.08,-66.59 130.34,-50.57"/>
<polygon fill="black" stroke="black" points="133.11,-52.74 135.55,-42.43 127.21,-48.97 133.11,-52.74"/>
<text text-anchor="middle" x="127.46" y="-65.95" font-family="Times,serif" font-size="14.00">3</text>
</g>
<!-- 5 -->
<g id="node7" class="node">
<title>5</title>
<ellipse fill="none" stroke="black" cx="87" cy="-313.75" rx="18" ry="18"/>
<ellipse fill="none" stroke="black" cx="87" cy="-313.75" rx="22" ry="22"/>
<text text-anchor="middle" x="87" y="-309.07" font-family="Times,serif" font-size="14.00">5</text>
</g>
<!-- 5&#45;&gt;2 -->
<g id="edge5" class="edge">
<title>5&#45;&gt;2</title>
<path fill="none" stroke="black" d="M87,-291.61C87,-279.49 87,-264.01 87,-250.33"/>
<polygon fill="black" stroke="black" points="90.5,-250.42 87,-240.42 83.5,-250.42 90.5,-250.42"/>
<text text-anchor="middle" x="91.5" y="-260.45" font-family="Times,serif" font-size="14.00">3</text>
</g>
<!-- 5&#45;&gt;5 -->
<g id="edge3" class="edge">
<title>5&#45;&gt;5</title>
<path fill="none" stroke="black" d="M107.58,-322.6C117.84,-323.82 127,-320.87 127,-313.75 127,-309.52 123.77,-306.76 119,-305.48"/>
<polygon fill="black" stroke="black" points="119.26,-301.98 109.09,-304.98 118.9,-308.98 119.26,-301.98"/>
<text text-anchor="middle" x="131.5" y="-309.07" font-family="Times,serif" font-size="14.00">6</text>
</g>
<!-- 6&#45;&gt;5 -->
<g id="edge9" class="edge">
<title>6&#45;&gt;5</title>
<path fill="none" stroke="black" d="M87,-388.86C87,-376.74 87,-361.26 87,-347.58"/>
<polygon fill="black" stroke="black" points="90.5,-347.67 87,-337.67 83.5,-347.67 90.5,-347.67"/>
<text text-anchor="middle" x="91.5" y="-357.7" font-family="Times,serif" font-size="14.00">3</text>
</g>
<!-- 6&#45;&gt;6 -->
<g id="edge2" class="edge">
<title>6&#45;&gt;6</title>
<path fill="none" stroke="black" d="M107.58,-419.85C117.84,-421.07 127,-418.12 127,-411 127,-406.77 123.77,-404.01 119,-402.73"/>
<polygon fill="black" stroke="black" points="119.26,-399.23 109.09,-402.23 118.9,-406.23 119.26,-399.23"/>
<text text-anchor="middle" x="131.5" y="-406.32" font-family="Times,serif" font-size="14.00">6</text>
</g>
</g>
</svg>
